<svg xmlns="http://www.w3.org/2000/svg" xmlns:xlink="http://www.w3.org/1999/xlink" width="500" zoomAndPan="magnify" viewBox="0 0 375 187.499995" height="250" preserveAspectRatio="xMidYMid meet" version="1.0"><defs><g/></defs><g fill="rgb(94.898987%, 78.039551%, 26.669312%)" fill-opacity="1"><g transform="translate(28.952204, 139.927073)"><g><path d="M 74.507812 -52.011719 C 68.019531 -38.5625 59.988281 -23.863281 49.394531 -13.152344 C 21.304688 15.355469 3.09375 -4.640625 2.679688 -25.769531 C 2.378906 -44.15625 14.816406 -63.675781 30.351562 -72.664062 C 33.207031 -74.328125 36.421875 -75.699219 40.644531 -76.949219 C 43.917969 -77.898438 42.195312 -82.78125 39.097656 -81.589844 C 28.804688 -78.4375 20.113281 -77.304688 10.472656 -81.113281 C -4.285156 -88.253906 1.070312 -105.632812 11.070312 -118.128906 C 26.542969 -137.648438 56.894531 -140.921875 50.824219 -126.34375 C 47.789062 -119.378906 42.492188 -118.425781 37.492188 -117.296875 C 34.277344 -116.582031 35.351562 -111.761719 38.5625 -112.476562 C 46.359375 -114.203125 51.953125 -119.4375 53.976562 -125.152344 C 60.285156 -143.71875 28.03125 -141.757812 10.058594 -118.902344 C -0.179688 -105.929688 -5.59375 -88.316406 9.699219 -79.507812 C 14.042969 -77.484375 18.804688 -75.996094 26.957031 -75.757812 C 10.773438 -64.988281 -0.773438 -44.21875 0.0585938 -25.707031 C 1.128906 -3.035156 21.425781 18.03125 50.226562 -12.378906 C 61.175781 -23.984375 69.09375 -37.375 76.589844 -51.238281 C 77.1875 -52.308594 75.164062 -53.320312 74.507812 -52.011719 Z M 74.507812 -52.011719 "/></g></g></g><g fill="rgb(94.898987%, 78.039551%, 26.669312%)" fill-opacity="1"><g transform="translate(103.091104, 139.927073)"><g><path d="M 44.632812 -52.964844 C 36.363281 -39.21875 27.671875 -12.558594 16.425781 -13.332031 C -4.9375 -14.757812 2.796875 -119.855469 25.234375 -121.699219 C 39.632812 -122.890625 32.671875 -68.972656 6.902344 -56.355469 C 3.867188 -54.929688 6.785156 -50.226562 9.582031 -52.964844 C 37.96875 -80.160156 42.195312 -125.6875 25.171875 -125.035156 C -4.761719 -123.785156 -9.523438 -12.082031 16.246094 -11.367188 C 28.207031 -11.070312 36.003906 -35.230469 46.359375 -51.65625 C 47.371094 -53.261719 45.40625 -54.332031 44.632812 -52.964844 Z M 44.632812 -52.964844 "/></g></g></g><g fill="rgb(94.898987%, 78.039551%, 26.669312%)" fill-opacity="1"><g transform="translate(147.53874, 139.927073)"><g><path d="M 34.875 -52.132812 C 32.015625 -45.347656 26.601562 -38.742188 19.460938 -36.71875 C 11.902344 -34.515625 3.929688 -37.015625 3.152344 -45.464844 C 3.09375 -46.539062 3.09375 -47.609375 3.273438 -48.679688 C 7.082031 -48.679688 11.367188 -49.214844 14.757812 -50.941406 C 22.316406 -54.929688 20.710938 -62.664062 13.804688 -63.558594 C 3.988281 -64.75 -2.320312 -54.332031 0 -44.929688 C 2.320312 -35.824219 11.308594 -33.089844 19.699219 -35.765625 C 27.257812 -38.085938 32.671875 -44.453125 36.835938 -51.121094 C 37.671875 -52.488281 35.46875 -53.621094 34.875 -52.132812 Z M 13.152344 -58.617188 C 15.769531 -58.203125 14.34375 -56.59375 12.378906 -55.582031 C 10.117188 -54.453125 7.378906 -53.976562 4.878906 -53.796875 C 6.664062 -57.191406 9.460938 -59.152344 13.152344 -58.617188 Z M 13.152344 -58.617188 "/></g></g></g><g fill="rgb(94.898987%, 78.039551%, 26.669312%)" fill-opacity="1"><g transform="translate(182.347134, 139.927073)"><g><path d="M 40.46875 -52.011719 C 37.671875 -45.527344 33.445312 -37.789062 26.484375 -38.148438 C 19.042969 -38.5625 20.472656 -49.871094 19.460938 -56 C 18.628906 -60.640625 15.710938 -60.226562 14.105469 -56.179688 C 12.4375 -57.25 10.59375 -57.964844 8.570312 -57.964844 C -2.082031 -57.84375 -6.25 -35.886719 2.5 -35.171875 C 8.035156 -34.695312 11.1875 -43.085938 14.402344 -50.40625 C 16.664062 -50.347656 17.792969 -52.964844 16.246094 -54.570312 C 16.542969 -55.109375 16.664062 -55.40625 16.78125 -55.703125 C 16.78125 -55.644531 16.839844 -55.582031 16.839844 -55.523438 C 18.03125 -48.382812 18.210938 -37.3125 26.363281 -37.015625 C 34.039062 -36.71875 38.324219 -44.515625 42.371094 -51 C 43.265625 -52.308594 41.0625 -53.441406 40.46875 -52.011719 Z M 2.976562 -36.597656 C -3.808594 -36.835938 1.308594 -55.046875 8.390625 -54.097656 C 9.878906 -53.859375 11.367188 -52.726562 12.558594 -51.238281 C 11.246094 -46.359375 8.273438 -36.421875 2.976562 -36.597656 Z M 2.976562 -36.597656 "/></g></g></g><g fill="rgb(94.898987%, 78.039551%, 26.669312%)" fill-opacity="1"><g transform="translate(222.748664, 139.927073)"><g><path d="M 54.332031 -52.726562 C 52.667969 -46.894531 50.109375 -40.765625 46.597656 -35.648438 C 42.253906 -29.519531 36.300781 -25.945312 31.898438 -31.539062 C 24.816406 -40.527344 29.21875 -62.964844 19.578125 -64.75 C 8.808594 -66.710938 6.726562 -43.027344 3.929688 -33.445312 C 3.453125 -38.148438 3.75 -49.929688 2.917969 -54.15625 C 2.441406 -56.296875 -0.773438 -55.644531 -0.355469 -53.5 C 0.65625 -48.738281 -1.429688 -40.46875 -1.011719 -33.5625 C -0.476562 -24.28125 5.652344 -23.921875 7.914062 -30.230469 C 11.246094 -39.632812 10.949219 -62.605469 19.042969 -62.546875 C 26.71875 -62.488281 24.398438 -39.394531 31.183594 -30.945312 C 35.945312 -24.933594 42.429688 -28.269531 47.488281 -34.992188 C 51.0625 -39.8125 54.15625 -46.300781 56.355469 -51.894531 C 57.011719 -53.558594 54.75 -54.15625 54.332031 -52.726562 Z M 54.332031 -52.726562 "/></g></g></g><g fill="rgb(94.898987%, 78.039551%, 26.669312%)" fill-opacity="1"><g transform="translate(276.895041, 139.927073)"><g><path d="M 33.027344 -52.609375 C 31.003906 -50.824219 28.445312 -49.632812 25.828125 -49.511719 C 19.28125 -49.097656 13.6875 -54.75 9.9375 -60.046875 C 9.820312 -60.941406 9.34375 -61.714844 8.570312 -62.070312 C 8.390625 -62.308594 7.796875 -63.378906 7.023438 -64.210938 C 5 -66.355469 1.011719 -62.902344 4.164062 -60.164062 C 1.070312 -56.59375 -0.65625 -51.359375 -0.773438 -46.714844 C -1.308594 -30.945312 17.734375 -32.195312 12.855469 -48.679688 C 12.257812 -50.585938 11.664062 -52.429688 11.007812 -54.332031 C 15.472656 -50.824219 20.175781 -48.203125 25.886719 -48.5625 C 28.980469 -48.738281 31.539062 -49.691406 34.160156 -50.761719 C 35.824219 -51.417969 34.277344 -53.796875 33.027344 -52.609375 Z M 2.140625 -46.476562 C 2.738281 -51.0625 4.878906 -54.691406 7.199219 -56.65625 C 9.046875 -53.917969 10.414062 -50.941406 11.246094 -48.203125 C 15.234375 -34.8125 0.535156 -34.039062 2.140625 -46.476562 Z M 2.140625 -46.476562 "/></g></g></g><g fill="rgb(94.898987%, 78.039551%, 26.669312%)" fill-opacity="1"><g transform="translate(309.739886, 139.927073)"><g><path d="M 36.480469 -52.074219 C 34.695312 -47.964844 32.851562 -43.917969 30.648438 -40.050781 C 27.730469 -34.875 23.269531 -28.03125 17.914062 -25.234375 C 11.785156 -22.136719 8.035156 -23.921875 10.414062 -34.875 C 12.855469 -45.585938 14.042969 -48.203125 6.664062 -51.773438 C 5.832031 -52.191406 5 -52.546875 4.226562 -52.90625 C 5.414062 -54.511719 6.488281 -56.179688 7.140625 -58.203125 C 9.402344 -65.222656 2.679688 -68.796875 -2.320312 -62.964844 C -5.058594 -59.75 -4.703125 -54.570312 -1.488281 -51.535156 C 0.117188 -50.167969 2.441406 -48.679688 4.523438 -47.789062 C 8.75 -46.0625 6.488281 -44.691406 6.070312 -35.46875 C 5.535156 -22.613281 11.785156 -20.175781 18.628906 -23.984375 C 24.042969 -27.136719 28.386719 -34.039062 31.601562 -39.515625 C 33.5625 -42.96875 37.96875 -51.359375 37.96875 -51.417969 C 38.445312 -52.429688 36.957031 -53.203125 36.480469 -52.074219 Z M -0.179688 -61.238281 C 2.679688 -65.285156 6.664062 -63.617188 5 -58.917969 C 4.285156 -57.128906 2.917969 -55.523438 1.25 -54.332031 C -1.191406 -55.941406 -1.605469 -59.332031 -0.179688 -61.238281 Z M -0.179688 -61.238281 "/></g></g></g><g fill="rgb(94.898987%, 78.039551%, 26.669312%)" fill-opacity="1"><g transform="translate(87.615166, 151.380384)"><g><path d="M 0.59375 -0.59375 L 1.296875 -0.59375 C 1.492188 -0.59375 1.660156 -0.660156 1.796875 -0.796875 C 1.929688 -0.929688 2 -1.097656 2 -1.296875 L 2 -9.890625 C 2 -10.085938 1.929688 -10.253906 1.796875 -10.390625 C 1.660156 -10.523438 1.492188 -10.59375 1.296875 -10.59375 L 0.59375 -10.59375 L 0.59375 -11.1875 L 6.296875 -11.1875 C 6.984375 -11.1875 7.582031 -11.113281 8.09375 -10.96875 C 8.601562 -10.832031 9.019531 -10.644531 9.34375 -10.40625 C 9.664062 -10.164062 9.90625 -9.890625 10.0625 -9.578125 C 10.21875 -9.265625 10.296875 -8.9375 10.296875 -8.59375 C 10.296875 -7.9375 10.046875 -7.378906 9.546875 -6.921875 C 9.046875 -6.472656 8.296875 -6.195312 7.296875 -6.09375 L 7.296875 -6 C 8.597656 -5.882812 9.554688 -5.5625 10.171875 -5.03125 C 10.785156 -4.5 11.09375 -3.851562 11.09375 -3.09375 C 11.09375 -2.613281 11.007812 -2.179688 10.84375 -1.796875 C 10.6875 -1.421875 10.414062 -1.097656 10.03125 -0.828125 C 9.65625 -0.566406 9.160156 -0.363281 8.546875 -0.21875 C 7.941406 -0.0703125 7.191406 0 6.296875 0 L 0.59375 0 Z M 5.796875 -0.59375 C 7.597656 -0.59375 8.5 -1.460938 8.5 -3.203125 C 8.5 -3.992188 8.273438 -4.609375 7.828125 -5.046875 C 7.378906 -5.484375 6.703125 -5.703125 5.796875 -5.703125 L 4.5 -5.703125 L 4.5 -0.59375 Z M 5.796875 -6.1875 C 6.359375 -6.1875 6.8125 -6.375 7.15625 -6.75 C 7.507812 -7.132812 7.6875 -7.679688 7.6875 -8.390625 C 7.6875 -9.097656 7.507812 -9.640625 7.15625 -10.015625 C 6.8125 -10.398438 6.359375 -10.59375 5.796875 -10.59375 L 4.5 -10.59375 L 4.5 -6.1875 Z M 5.796875 -6.1875 "/></g></g></g><g fill="rgb(94.898987%, 78.039551%, 26.669312%)" fill-opacity="1"><g transform="translate(106.643669, 151.380384)"><g><path d="M 7.09375 0.40625 C 6.21875 0.40625 5.410156 0.253906 4.671875 -0.046875 C 3.929688 -0.359375 3.285156 -0.785156 2.734375 -1.328125 C 2.191406 -1.867188 1.765625 -2.5 1.453125 -3.21875 C 1.148438 -3.945312 1 -4.738281 1 -5.59375 C 1 -6.445312 1.148438 -7.234375 1.453125 -7.953125 C 1.765625 -8.679688 2.191406 -9.316406 2.734375 -9.859375 C 3.285156 -10.398438 3.929688 -10.820312 4.671875 -11.125 C 5.410156 -11.4375 6.21875 -11.59375 7.09375 -11.59375 C 7.96875 -11.59375 8.773438 -11.4375 9.515625 -11.125 C 10.253906 -10.820312 10.894531 -10.398438 11.4375 -9.859375 C 11.988281 -9.316406 12.414062 -8.679688 12.71875 -7.953125 C 13.03125 -7.234375 13.1875 -6.445312 13.1875 -5.59375 C 13.1875 -4.738281 13.03125 -3.945312 12.71875 -3.21875 C 12.414062 -2.5 11.988281 -1.867188 11.4375 -1.328125 C 10.894531 -0.785156 10.253906 -0.359375 9.515625 -0.046875 C 8.773438 0.253906 7.96875 0.40625 7.09375 0.40625 Z M 7.09375 -0.09375 C 7.550781 -0.09375 7.988281 -0.195312 8.40625 -0.40625 C 8.820312 -0.625 9.191406 -0.957031 9.515625 -1.40625 C 9.847656 -1.863281 10.109375 -2.4375 10.296875 -3.125 C 10.492188 -3.820312 10.59375 -4.644531 10.59375 -5.59375 C 10.59375 -6.539062 10.492188 -7.359375 10.296875 -8.046875 C 10.109375 -8.742188 9.847656 -9.316406 9.515625 -9.765625 C 9.191406 -10.210938 8.820312 -10.546875 8.40625 -10.765625 C 7.988281 -10.984375 7.550781 -11.09375 7.09375 -11.09375 C 6.644531 -11.09375 6.207031 -10.984375 5.78125 -10.765625 C 5.363281 -10.546875 4.988281 -10.210938 4.65625 -9.765625 C 4.332031 -9.316406 4.070312 -8.742188 3.875 -8.046875 C 3.6875 -7.359375 3.59375 -6.539062 3.59375 -5.59375 C 3.59375 -4.644531 3.6875 -3.820312 3.875 -3.125 C 4.070312 -2.4375 4.332031 -1.863281 4.65625 -1.40625 C 4.988281 -0.957031 5.363281 -0.625 5.78125 -0.40625 C 6.207031 -0.195312 6.644531 -0.09375 7.09375 -0.09375 Z M 7.09375 -0.09375 "/></g></g></g><g fill="rgb(94.898987%, 78.039551%, 26.669312%)" fill-opacity="1"><g transform="translate(127.770688, 151.380384)"><g><path d="M 7 0.40625 C 5.332031 0.40625 4.066406 -0.0195312 3.203125 -0.875 C 2.335938 -1.738281 1.90625 -2.976562 1.90625 -4.59375 L 1.90625 -9.890625 C 1.90625 -10.085938 1.835938 -10.253906 1.703125 -10.390625 C 1.566406 -10.523438 1.398438 -10.59375 1.203125 -10.59375 L 0.5 -10.59375 L 0.5 -11.1875 L 5.703125 -11.1875 L 5.703125 -10.59375 L 4.390625 -10.59375 L 4.390625 -4.09375 C 4.390625 -2.75 4.660156 -1.765625 5.203125 -1.140625 C 5.753906 -0.515625 6.484375 -0.203125 7.390625 -0.203125 C 7.847656 -0.203125 8.257812 -0.273438 8.625 -0.421875 C 8.988281 -0.578125 9.300781 -0.816406 9.5625 -1.140625 C 9.820312 -1.460938 10.023438 -1.863281 10.171875 -2.34375 C 10.316406 -2.832031 10.390625 -3.414062 10.390625 -4.09375 L 10.390625 -10.59375 L 9.09375 -10.59375 L 9.09375 -11.1875 L 12.6875 -11.1875 L 12.6875 -10.59375 L 12.09375 -10.59375 C 11.78125 -10.59375 11.535156 -10.492188 11.359375 -10.296875 C 11.179688 -10.109375 11.09375 -9.84375 11.09375 -9.5 L 11.09375 -4.203125 C 11.09375 -2.597656 10.742188 -1.425781 10.046875 -0.6875 C 9.359375 0.0390625 8.34375 0.40625 7 0.40625 Z M 7 0.40625 "/></g></g></g><g fill="rgb(94.898987%, 78.039551%, 26.669312%)" fill-opacity="1"><g transform="translate(147.798493, 151.380384)"><g><path d="M 0.59375 -0.59375 L 1.296875 -0.59375 C 1.492188 -0.59375 1.660156 -0.660156 1.796875 -0.796875 C 1.929688 -0.929688 2 -1.097656 2 -1.296875 L 2 -9.890625 C 2 -10.085938 1.929688 -10.253906 1.796875 -10.390625 C 1.660156 -10.523438 1.492188 -10.59375 1.296875 -10.59375 L 0.59375 -10.59375 L 0.59375 -11.1875 L 5.796875 -11.1875 L 5.796875 -10.59375 L 4.5 -10.59375 L 4.5 -0.59375 L 7.296875 -0.59375 C 8.503906 -0.59375 9.203125 -1.257812 9.390625 -2.59375 L 9.5 -3.296875 L 10 -3.296875 L 10 0 L 0.59375 0 Z M 0.59375 -0.59375 "/></g></g></g><g fill="rgb(94.898987%, 78.039551%, 26.669312%)" fill-opacity="1"><g transform="translate(165.627853, 151.380384)"><g><path d="M -0.296875 -0.59375 L 0.203125 -0.59375 C 0.597656 -0.59375 0.894531 -0.679688 1.09375 -0.859375 C 1.300781 -1.035156 1.445312 -1.25 1.53125 -1.5 L 5.390625 -11.59375 L 6 -11.59375 L 10.296875 -1.296875 C 10.390625 -1.097656 10.507812 -0.929688 10.65625 -0.796875 C 10.800781 -0.660156 11.015625 -0.59375 11.296875 -0.59375 L 11.984375 -0.59375 L 11.984375 0 L 6.890625 0 L 6.890625 -0.59375 L 8 -0.59375 L 7 -3 L 2.734375 -3 L 1.796875 -0.59375 L 3.09375 -0.59375 L 3.09375 0 L -0.296875 0 Z M 6.78125 -3.5 L 4.796875 -8.296875 L 2.921875 -3.5 Z M 6.78125 -3.5 "/></g></g></g><g fill="rgb(94.898987%, 78.039551%, 26.669312%)" fill-opacity="1"><g transform="translate(184.256644, 151.380384)"><g><path d="M 2.59375 -9.09375 L 2.59375 -0.59375 L 4 -0.59375 L 4 0 L 0.40625 0 L 0.40625 -0.59375 L 0.84375 -0.59375 C 1.550781 -0.59375 1.90625 -0.984375 1.90625 -1.765625 L 1.90625 -9.890625 C 1.90625 -10.085938 1.835938 -10.253906 1.703125 -10.390625 C 1.566406 -10.523438 1.398438 -10.59375 1.203125 -10.59375 L 0.5 -10.59375 L 0.5 -11.1875 L 4.09375 -11.1875 L 10.484375 -3.796875 L 10.484375 -10.59375 L 9.09375 -10.59375 L 9.09375 -11.1875 L 12.6875 -11.1875 L 12.6875 -10.59375 L 12.25 -10.59375 C 11.539062 -10.59375 11.1875 -10.207031 11.1875 -9.4375 L 11.1875 0.203125 L 10.59375 0.203125 Z M 2.59375 -9.09375 "/></g></g></g><g fill="rgb(94.898987%, 78.039551%, 26.669312%)" fill-opacity="1"><g transform="translate(204.284446, 151.380384)"><g><path d="M 7.09375 0.40625 C 6.21875 0.40625 5.410156 0.253906 4.671875 -0.046875 C 3.929688 -0.359375 3.285156 -0.785156 2.734375 -1.328125 C 2.191406 -1.867188 1.765625 -2.5 1.453125 -3.21875 C 1.148438 -3.945312 1 -4.738281 1 -5.59375 C 1 -6.445312 1.148438 -7.234375 1.453125 -7.953125 C 1.765625 -8.679688 2.191406 -9.316406 2.734375 -9.859375 C 3.285156 -10.398438 3.929688 -10.820312 4.671875 -11.125 C 5.410156 -11.4375 6.21875 -11.59375 7.09375 -11.59375 C 7.65625 -11.59375 8.148438 -11.535156 8.578125 -11.421875 C 9.003906 -11.316406 9.367188 -11.207031 9.671875 -11.09375 C 10.015625 -10.945312 10.320312 -10.78125 10.59375 -10.59375 L 10.6875 -10.59375 L 10.6875 -11.484375 L 11.1875 -11.484375 L 11.1875 -7.09375 L 10.796875 -7.09375 L 10.59375 -7.890625 C 10.351562 -8.847656 9.921875 -9.617188 9.296875 -10.203125 C 8.679688 -10.796875 7.945312 -11.09375 7.09375 -11.09375 C 6.664062 -11.09375 6.242188 -10.976562 5.828125 -10.75 C 5.410156 -10.519531 5.035156 -10.175781 4.703125 -9.71875 C 4.378906 -9.269531 4.113281 -8.695312 3.90625 -8 C 3.695312 -7.3125 3.59375 -6.507812 3.59375 -5.59375 C 3.59375 -4.675781 3.695312 -3.867188 3.90625 -3.171875 C 4.113281 -2.484375 4.378906 -1.910156 4.703125 -1.453125 C 5.035156 -1.003906 5.410156 -0.664062 5.828125 -0.4375 C 6.242188 -0.207031 6.664062 -0.09375 7.09375 -0.09375 C 7.550781 -0.09375 7.953125 -0.144531 8.296875 -0.25 C 8.648438 -0.363281 8.957031 -0.492188 9.21875 -0.640625 C 9.507812 -0.796875 9.769531 -0.984375 10 -1.203125 L 10 -4.203125 L 8.71875 -4.203125 L 8.71875 -4.796875 L 13.484375 -4.796875 L 13.484375 -4.203125 L 12.890625 -4.203125 C 12.691406 -4.203125 12.523438 -4.132812 12.390625 -4 C 12.253906 -3.863281 12.1875 -3.695312 12.1875 -3.5 L 12.1875 -1.296875 C 11.789062 -0.960938 11.332031 -0.675781 10.8125 -0.4375 C 10.375 -0.226562 9.835938 -0.0351562 9.203125 0.140625 C 8.566406 0.316406 7.863281 0.40625 7.09375 0.40625 Z M 7.09375 0.40625 "/></g></g></g><g fill="rgb(94.898987%, 78.039551%, 26.669312%)" fill-opacity="1"><g transform="translate(225.111683, 151.380384)"><g><path d="M 0.59375 -0.59375 L 1.296875 -0.59375 C 1.492188 -0.59375 1.660156 -0.660156 1.796875 -0.796875 C 1.929688 -0.929688 2 -1.097656 2 -1.296875 L 2 -9.890625 C 2 -10.085938 1.929688 -10.253906 1.796875 -10.390625 C 1.660156 -10.523438 1.492188 -10.59375 1.296875 -10.59375 L 0.59375 -10.59375 L 0.59375 -11.1875 L 9.890625 -11.1875 L 9.890625 -8.09375 L 9.390625 -8.09375 L 9.296875 -8.6875 C 9.097656 -9.957031 8.460938 -10.59375 7.390625 -10.59375 L 4.5 -10.59375 L 4.5 -6.296875 L 6.1875 -6.296875 C 6.5 -6.296875 6.742188 -6.382812 6.921875 -6.5625 C 7.097656 -6.738281 7.1875 -6.984375 7.1875 -7.296875 L 7.1875 -7.890625 L 7.6875 -7.890625 L 7.6875 -4.296875 L 7.1875 -4.296875 L 7.1875 -5.796875 L 4.5 -5.796875 L 4.5 -0.59375 L 7.6875 -0.59375 C 8.34375 -0.59375 8.847656 -0.757812 9.203125 -1.09375 C 9.566406 -1.425781 9.796875 -1.894531 9.890625 -2.5 L 10 -3.203125 L 10.484375 -3.203125 L 10.484375 0 L 0.59375 0 Z M 0.59375 -0.59375 "/></g></g></g><g fill="rgb(94.898987%, 78.039551%, 26.669312%)" fill-opacity="1"><g transform="translate(243.540615, 151.380384)"><g><path d="M 0.59375 -0.59375 L 1.296875 -0.59375 C 1.492188 -0.59375 1.660156 -0.660156 1.796875 -0.796875 C 1.929688 -0.929688 2 -1.097656 2 -1.296875 L 2 -9.890625 C 2 -10.085938 1.929688 -10.253906 1.796875 -10.390625 C 1.660156 -10.523438 1.492188 -10.59375 1.296875 -10.59375 L 0.59375 -10.59375 L 0.59375 -11.1875 L 6.1875 -11.1875 C 6.96875 -11.1875 7.640625 -11.101562 8.203125 -10.9375 C 8.765625 -10.769531 9.226562 -10.539062 9.59375 -10.25 C 9.96875 -9.957031 10.242188 -9.609375 10.421875 -9.203125 C 10.597656 -8.804688 10.6875 -8.367188 10.6875 -7.890625 C 10.6875 -7.035156 10.429688 -6.34375 9.921875 -5.8125 C 9.421875 -5.28125 8.742188 -4.941406 7.890625 -4.796875 L 7.890625 -4.703125 L 10 -1.59375 C 10.21875 -1.257812 10.445312 -1.007812 10.6875 -0.84375 C 10.925781 -0.675781 11.257812 -0.59375 11.6875 -0.59375 L 12.09375 -0.59375 L 12.09375 0 L 7 0 L 7 -0.59375 L 8.09375 -0.59375 L 5.390625 -4.59375 L 4.5 -4.59375 L 4.5 -0.59375 L 5.796875 -0.59375 L 5.796875 0 L 0.59375 0 Z M 5.59375 -5.09375 C 6.351562 -5.09375 6.957031 -5.332031 7.40625 -5.8125 C 7.863281 -6.289062 8.09375 -6.984375 8.09375 -7.890625 C 8.09375 -8.742188 7.863281 -9.40625 7.40625 -9.875 C 6.957031 -10.351562 6.351562 -10.59375 5.59375 -10.59375 L 4.5 -10.59375 L 4.5 -5.09375 Z M 5.59375 -5.09375 "/></g></g></g><g fill="rgb(94.898987%, 78.039551%, 26.669312%)" fill-opacity="1"><g transform="translate(262.569118, 151.380384)"><g><path d="M 0.59375 -0.59375 L 1.296875 -0.59375 C 1.492188 -0.59375 1.660156 -0.660156 1.796875 -0.796875 C 1.929688 -0.929688 2 -1.097656 2 -1.296875 L 2 -9.890625 C 2 -10.085938 1.929688 -10.253906 1.796875 -10.390625 C 1.660156 -10.523438 1.492188 -10.59375 1.296875 -10.59375 L 0.59375 -10.59375 L 0.59375 -11.1875 L 5.796875 -11.1875 L 5.796875 -10.59375 L 4.5 -10.59375 L 4.5 -0.59375 L 5.796875 -0.59375 L 5.796875 0 L 0.59375 0 Z M 0.59375 -0.59375 "/></g></g></g><g fill="rgb(94.898987%, 78.039551%, 26.669312%)" fill-opacity="1"><g transform="translate(275.901658, 151.380384)"><g><path d="M 0.59375 -0.59375 L 1.296875 -0.59375 C 1.492188 -0.59375 1.660156 -0.660156 1.796875 -0.796875 C 1.929688 -0.929688 2 -1.097656 2 -1.296875 L 2 -9.890625 C 2 -10.085938 1.929688 -10.253906 1.796875 -10.390625 C 1.660156 -10.523438 1.492188 -10.59375 1.296875 -10.59375 L 0.59375 -10.59375 L 0.59375 -11.1875 L 9.890625 -11.1875 L 9.890625 -8.09375 L 9.390625 -8.09375 L 9.296875 -8.6875 C 9.097656 -9.957031 8.460938 -10.59375 7.390625 -10.59375 L 4.5 -10.59375 L 4.5 -6.296875 L 6.1875 -6.296875 C 6.5 -6.296875 6.742188 -6.382812 6.921875 -6.5625 C 7.097656 -6.738281 7.1875 -6.984375 7.1875 -7.296875 L 7.1875 -7.890625 L 7.6875 -7.890625 L 7.6875 -4.296875 L 7.1875 -4.296875 L 7.1875 -5.796875 L 4.5 -5.796875 L 4.5 -0.59375 L 7.6875 -0.59375 C 8.34375 -0.59375 8.847656 -0.757812 9.203125 -1.09375 C 9.566406 -1.425781 9.796875 -1.894531 9.890625 -2.5 L 10 -3.203125 L 10.484375 -3.203125 L 10.484375 0 L 0.59375 0 Z M 0.59375 -0.59375 "/></g></g></g><g fill="rgb(94.898987%, 78.039551%, 26.669312%)" fill-opacity="1"><g transform="translate(100.716945, 179.056579)"><g><path d="M -0.296875 -0.59375 L 0.203125 -0.59375 C 0.597656 -0.59375 0.894531 -0.679688 1.09375 -0.859375 C 1.300781 -1.035156 1.445312 -1.25 1.53125 -1.5 L 5.390625 -11.59375 L 6 -11.59375 L 10.296875 -1.296875 C 10.390625 -1.097656 10.507812 -0.929688 10.65625 -0.796875 C 10.800781 -0.660156 11.015625 -0.59375 11.296875 -0.59375 L 11.984375 -0.59375 L 11.984375 0 L 6.890625 0 L 6.890625 -0.59375 L 8 -0.59375 L 7 -3 L 2.734375 -3 L 1.796875 -0.59375 L 3.09375 -0.59375 L 3.09375 0 L -0.296875 0 Z M 6.78125 -3.5 L 4.796875 -8.296875 L 2.921875 -3.5 Z M 6.78125 -3.5 "/></g></g></g><g fill="rgb(94.898987%, 78.039551%, 26.669312%)" fill-opacity="1"><g transform="translate(119.345731, 179.056579)"><g><path d="M 0.59375 -0.59375 L 1.296875 -0.59375 C 1.492188 -0.59375 1.660156 -0.660156 1.796875 -0.796875 C 1.929688 -0.929688 2 -1.097656 2 -1.296875 L 2 -9.890625 C 2 -10.085938 1.929688 -10.253906 1.796875 -10.390625 C 1.660156 -10.523438 1.492188 -10.59375 1.296875 -10.59375 L 0.59375 -10.59375 L 0.59375 -11.1875 L 6.1875 -11.1875 C 6.96875 -11.1875 7.640625 -11.101562 8.203125 -10.9375 C 8.765625 -10.769531 9.226562 -10.539062 9.59375 -10.25 C 9.96875 -9.957031 10.242188 -9.609375 10.421875 -9.203125 C 10.597656 -8.804688 10.6875 -8.367188 10.6875 -7.890625 C 10.6875 -7.035156 10.429688 -6.34375 9.921875 -5.8125 C 9.421875 -5.28125 8.742188 -4.941406 7.890625 -4.796875 L 7.890625 -4.703125 L 10 -1.59375 C 10.21875 -1.257812 10.445312 -1.007812 10.6875 -0.84375 C 10.925781 -0.675781 11.257812 -0.59375 11.6875 -0.59375 L 12.09375 -0.59375 L 12.09375 0 L 7 0 L 7 -0.59375 L 8.09375 -0.59375 L 5.390625 -4.59375 L 4.5 -4.59375 L 4.5 -0.59375 L 5.796875 -0.59375 L 5.796875 0 L 0.59375 0 Z M 5.59375 -5.09375 C 6.351562 -5.09375 6.957031 -5.332031 7.40625 -5.8125 C 7.863281 -6.289062 8.09375 -6.984375 8.09375 -7.890625 C 8.09375 -8.742188 7.863281 -9.40625 7.40625 -9.875 C 6.957031 -10.351562 6.351562 -10.59375 5.59375 -10.59375 L 4.5 -10.59375 L 4.5 -5.09375 Z M 5.59375 -5.09375 "/></g></g></g><g fill="rgb(94.898987%, 78.039551%, 26.669312%)" fill-opacity="1"><g transform="translate(138.374235, 179.056579)"><g><path d="M 3.203125 -0.59375 L 3.890625 -0.59375 C 4.097656 -0.59375 4.265625 -0.660156 4.390625 -0.796875 C 4.523438 -0.929688 4.59375 -1.097656 4.59375 -1.296875 L 4.59375 -9.890625 C 4.59375 -10.085938 4.523438 -10.253906 4.390625 -10.390625 C 4.265625 -10.523438 4.097656 -10.59375 3.890625 -10.59375 L 3.296875 -10.59375 C 2.734375 -10.59375 2.28125 -10.421875 1.9375 -10.078125 C 1.601562 -9.742188 1.390625 -9.25 1.296875 -8.59375 L 1.203125 -7.890625 L 0.703125 -7.890625 L 0.703125 -11.1875 L 10.984375 -11.1875 L 10.984375 -7.890625 L 10.484375 -7.890625 L 10.390625 -8.59375 C 10.296875 -9.25 10.078125 -9.742188 9.734375 -10.078125 C 9.398438 -10.421875 8.953125 -10.59375 8.390625 -10.59375 L 7.09375 -10.59375 L 7.09375 -0.59375 L 8.390625 -0.59375 L 8.390625 0 L 3.203125 0 Z M 3.203125 -0.59375 "/></g></g></g><g fill="rgb(94.898987%, 78.039551%, 26.669312%)" fill-opacity="1"><g transform="translate(157.003023, 179.056579)"><g><path d="M 0.59375 -0.59375 L 1.296875 -0.59375 C 1.492188 -0.59375 1.660156 -0.660156 1.796875 -0.796875 C 1.929688 -0.929688 2 -1.097656 2 -1.296875 L 2 -9.890625 C 2 -10.085938 1.929688 -10.253906 1.796875 -10.390625 C 1.660156 -10.523438 1.492188 -10.59375 1.296875 -10.59375 L 0.59375 -10.59375 L 0.59375 -11.1875 L 5.796875 -11.1875 L 5.796875 -10.59375 L 4.5 -10.59375 L 4.5 -0.59375 L 5.796875 -0.59375 L 5.796875 0 L 0.59375 0 Z M 0.59375 -0.59375 "/></g></g></g><g fill="rgb(94.898987%, 78.039551%, 26.669312%)" fill-opacity="1"><g transform="translate(170.335564, 179.056579)"><g><path d="M 5.203125 0.40625 C 4.640625 0.40625 4.148438 0.335938 3.734375 0.203125 C 3.328125 0.078125 2.972656 -0.0546875 2.671875 -0.203125 C 2.328125 -0.367188 2.035156 -0.566406 1.796875 -0.796875 L 1.703125 -0.796875 L 1.703125 0.203125 L 1.203125 0.203125 L 1.203125 -4.296875 L 1.703125 -4.296875 L 1.90625 -3.203125 C 1.976562 -2.753906 2.109375 -2.34375 2.296875 -1.96875 C 2.492188 -1.601562 2.734375 -1.28125 3.015625 -1 C 3.304688 -0.71875 3.632812 -0.492188 4 -0.328125 C 4.375 -0.171875 4.773438 -0.09375 5.203125 -0.09375 C 5.953125 -0.09375 6.503906 -0.253906 6.859375 -0.578125 C 7.210938 -0.898438 7.390625 -1.34375 7.390625 -1.90625 C 7.390625 -2.300781 7.242188 -2.65625 6.953125 -2.96875 C 6.671875 -3.289062 6.316406 -3.601562 5.890625 -3.90625 C 5.460938 -4.207031 4.992188 -4.507812 4.484375 -4.8125 C 3.984375 -5.125 3.519531 -5.460938 3.09375 -5.828125 C 2.664062 -6.191406 2.304688 -6.609375 2.015625 -7.078125 C 1.734375 -7.546875 1.59375 -8.082031 1.59375 -8.6875 C 1.59375 -9.0625 1.675781 -9.421875 1.84375 -9.765625 C 2.007812 -10.117188 2.25 -10.429688 2.5625 -10.703125 C 2.875 -10.972656 3.253906 -11.1875 3.703125 -11.34375 C 4.148438 -11.507812 4.648438 -11.59375 5.203125 -11.59375 C 5.617188 -11.59375 5.988281 -11.554688 6.3125 -11.484375 C 6.632812 -11.410156 6.910156 -11.328125 7.140625 -11.234375 C 7.390625 -11.128906 7.609375 -11.015625 7.796875 -10.890625 L 7.890625 -10.890625 L 7.890625 -11.59375 L 8.390625 -11.59375 L 8.390625 -7.796875 L 7.890625 -7.796875 L 7.6875 -9.09375 C 7.59375 -9.695312 7.34375 -10.179688 6.9375 -10.546875 C 6.53125 -10.910156 5.953125 -11.09375 5.203125 -11.09375 C 4.640625 -11.09375 4.210938 -10.957031 3.921875 -10.6875 C 3.640625 -10.425781 3.5 -10.09375 3.5 -9.6875 C 3.5 -9.289062 3.640625 -8.929688 3.921875 -8.609375 C 4.210938 -8.296875 4.570312 -7.988281 5 -7.6875 C 5.425781 -7.382812 5.890625 -7.078125 6.390625 -6.765625 C 6.898438 -6.460938 7.367188 -6.128906 7.796875 -5.765625 C 8.222656 -5.398438 8.578125 -4.984375 8.859375 -4.515625 C 9.148438 -4.046875 9.296875 -3.503906 9.296875 -2.890625 C 9.296875 -2.441406 9.203125 -2.015625 9.015625 -1.609375 C 8.828125 -1.210938 8.554688 -0.863281 8.203125 -0.5625 C 7.859375 -0.269531 7.429688 -0.0351562 6.921875 0.140625 C 6.421875 0.316406 5.847656 0.40625 5.203125 0.40625 Z M 5.203125 0.40625 "/></g></g></g><g fill="rgb(94.898987%, 78.039551%, 26.669312%)" fill-opacity="1"><g transform="translate(187.665269, 179.056579)"><g><path d="M -0.296875 -0.59375 L 0.203125 -0.59375 C 0.597656 -0.59375 0.894531 -0.679688 1.09375 -0.859375 C 1.300781 -1.035156 1.445312 -1.25 1.53125 -1.5 L 5.390625 -11.59375 L 6 -11.59375 L 10.296875 -1.296875 C 10.390625 -1.097656 10.507812 -0.929688 10.65625 -0.796875 C 10.800781 -0.660156 11.015625 -0.59375 11.296875 -0.59375 L 11.984375 -0.59375 L 11.984375 0 L 6.890625 0 L 6.890625 -0.59375 L 8 -0.59375 L 7 -3 L 2.734375 -3 L 1.796875 -0.59375 L 3.09375 -0.59375 L 3.09375 0 L -0.296875 0 Z M 6.78125 -3.5 L 4.796875 -8.296875 L 2.921875 -3.5 Z M 6.78125 -3.5 "/></g></g></g><g fill="rgb(94.898987%, 78.039551%, 26.669312%)" fill-opacity="1"><g transform="translate(206.29406, 179.056579)"><g><path d="M 2.59375 -9.09375 L 2.59375 -0.59375 L 4 -0.59375 L 4 0 L 0.40625 0 L 0.40625 -0.59375 L 0.84375 -0.59375 C 1.550781 -0.59375 1.90625 -0.984375 1.90625 -1.765625 L 1.90625 -9.890625 C 1.90625 -10.085938 1.835938 -10.253906 1.703125 -10.390625 C 1.566406 -10.523438 1.398438 -10.59375 1.203125 -10.59375 L 0.5 -10.59375 L 0.5 -11.1875 L 4.09375 -11.1875 L 10.484375 -3.796875 L 10.484375 -10.59375 L 9.09375 -10.59375 L 9.09375 -11.1875 L 12.6875 -11.1875 L 12.6875 -10.59375 L 12.25 -10.59375 C 11.539062 -10.59375 11.1875 -10.207031 11.1875 -9.4375 L 11.1875 0.203125 L 10.59375 0.203125 Z M 2.59375 -9.09375 "/></g></g></g><g fill="rgb(94.898987%, 78.039551%, 26.669312%)" fill-opacity="1"><g transform="translate(226.321862, 179.056579)"><g><path d="M -0.296875 -0.59375 L 0.203125 -0.59375 C 0.597656 -0.59375 0.894531 -0.679688 1.09375 -0.859375 C 1.300781 -1.035156 1.445312 -1.25 1.53125 -1.5 L 5.390625 -11.59375 L 6 -11.59375 L 10.296875 -1.296875 C 10.390625 -1.097656 10.507812 -0.929688 10.65625 -0.796875 C 10.800781 -0.660156 11.015625 -0.59375 11.296875 -0.59375 L 11.984375 -0.59375 L 11.984375 0 L 6.890625 0 L 6.890625 -0.59375 L 8 -0.59375 L 7 -3 L 2.734375 -3 L 1.796875 -0.59375 L 3.09375 -0.59375 L 3.09375 0 L -0.296875 0 Z M 6.78125 -3.5 L 4.796875 -8.296875 L 2.921875 -3.5 Z M 6.78125 -3.5 "/></g></g></g><g fill="rgb(94.898987%, 78.039551%, 26.669312%)" fill-opacity="1"><g transform="translate(244.950646, 179.056579)"><g><path d="M 0.59375 -0.59375 L 1.296875 -0.59375 C 1.492188 -0.59375 1.660156 -0.660156 1.796875 -0.796875 C 1.929688 -0.929688 2 -1.097656 2 -1.296875 L 2 -9.890625 C 2 -10.085938 1.929688 -10.253906 1.796875 -10.390625 C 1.660156 -10.523438 1.492188 -10.59375 1.296875 -10.59375 L 0.59375 -10.59375 L 0.59375 -11.1875 L 5.796875 -11.1875 L 5.796875 -10.59375 L 4.5 -10.59375 L 4.5 -0.59375 L 7.296875 -0.59375 C 8.503906 -0.59375 9.203125 -1.257812 9.390625 -2.59375 L 9.5 -3.296875 L 10 -3.296875 L 10 0 L 0.59375 0 Z M 0.59375 -0.59375 "/></g></g></g><g fill="rgb(94.898987%, 78.039551%, 26.669312%)" fill-opacity="1"><g transform="translate(262.780007, 179.056579)"><g><path d="M 0.59375 -0.59375 L 1.296875 -0.59375 C 1.492188 -0.59375 1.660156 -0.660156 1.796875 -0.796875 C 1.929688 -0.929688 2 -1.097656 2 -1.296875 L 2 -9.890625 C 2 -10.085938 1.929688 -10.253906 1.796875 -10.390625 C 1.660156 -10.523438 1.492188 -10.59375 1.296875 -10.59375 L 0.59375 -10.59375 L 0.59375 -11.1875 L 9.890625 -11.1875 L 9.890625 -8.09375 L 9.390625 -8.09375 L 9.296875 -8.6875 C 9.097656 -9.957031 8.460938 -10.59375 7.390625 -10.59375 L 4.5 -10.59375 L 4.5 -6.296875 L 6.1875 -6.296875 C 6.5 -6.296875 6.742188 -6.382812 6.921875 -6.5625 C 7.097656 -6.738281 7.1875 -6.984375 7.1875 -7.296875 L 7.1875 -7.890625 L 7.6875 -7.890625 L 7.6875 -4.296875 L 7.1875 -4.296875 L 7.1875 -5.796875 L 4.5 -5.796875 L 4.5 -0.59375 L 7.6875 -0.59375 C 8.34375 -0.59375 8.847656 -0.757812 9.203125 -1.09375 C 9.566406 -1.425781 9.796875 -1.894531 9.890625 -2.5 L 10 -3.203125 L 10.484375 -3.203125 L 10.484375 0 L 0.59375 0 Z M 0.59375 -0.59375 "/></g></g></g></svg>