<svg xmlns="http://www.w3.org/2000/svg" xmlns:xlink="http://www.w3.org/1999/xlink" width="500" zoomAndPan="magnify" viewBox="0 0 375 149.999998" height="200" preserveAspectRatio="xMidYMid meet" version="1.0"><defs><g/></defs><g fill="rgb(94.898987%, 78.039551%, 26.669312%)" fill-opacity="1"><g transform="translate(26.809872, 144.895388)"><g><path d="M 75.503906 -52.707031 C 68.929688 -39.078125 60.789062 -24.183594 50.054688 -13.328125 C 21.589844 15.558594 3.136719 -4.703125 2.714844 -26.113281 C 2.414062 -44.75 15.015625 -64.527344 30.757812 -73.636719 C 33.652344 -75.324219 36.90625 -76.710938 41.191406 -77.976562 C 44.507812 -78.941406 42.757812 -83.886719 39.621094 -82.679688 C 29.1875 -79.484375 20.382812 -78.339844 10.613281 -82.199219 C -4.34375 -89.4375 1.085938 -107.046875 11.21875 -119.710938 C 26.898438 -139.492188 57.652344 -142.808594 51.503906 -128.03125 C 48.425781 -120.976562 43.058594 -120.011719 37.992188 -118.867188 C 34.738281 -118.140625 35.824219 -113.257812 39.078125 -113.980469 C 46.980469 -115.730469 52.648438 -121.039062 54.699219 -126.828125 C 61.089844 -145.644531 28.40625 -143.652344 10.191406 -120.496094 C -0.179688 -107.347656 -5.667969 -89.496094 9.832031 -80.570312 C 14.234375 -78.519531 19.058594 -77.011719 27.320312 -76.769531 C 10.914062 -65.855469 -0.785156 -44.808594 0.0585938 -26.054688 C 1.144531 -3.074219 21.710938 18.273438 50.898438 -12.542969 C 61.996094 -24.304688 70.015625 -37.875 77.617188 -51.925781 C 78.21875 -53.011719 76.167969 -54.035156 75.503906 -52.707031 Z M 75.503906 -52.707031 "/></g></g></g><g fill="rgb(94.898987%, 78.039551%, 26.669312%)" fill-opacity="1"><g transform="translate(101.949451, 144.895388)"><g><path d="M 45.230469 -53.671875 C 36.847656 -39.742188 28.042969 -12.726562 16.644531 -13.507812 C -5.003906 -14.957031 2.835938 -121.460938 25.570312 -123.328125 C 40.164062 -124.535156 33.109375 -69.894531 6.996094 -57.109375 C 3.921875 -55.664062 6.875 -50.898438 9.710938 -53.671875 C 38.476562 -81.234375 42.757812 -127.371094 25.511719 -126.707031 C -4.824219 -125.441406 -9.648438 -12.242188 16.464844 -11.519531 C 28.585938 -11.21875 36.484375 -35.703125 46.980469 -52.347656 C 48.003906 -53.976562 46.015625 -55.0625 45.230469 -53.671875 Z M 45.230469 -53.671875 "/></g></g></g><g fill="rgb(94.898987%, 78.039551%, 26.669312%)" fill-opacity="1"><g transform="translate(146.997022, 144.895388)"><g><path d="M 35.339844 -52.828125 C 32.445312 -45.953125 26.957031 -39.261719 19.71875 -37.210938 C 12.0625 -34.976562 3.980469 -37.511719 3.195312 -46.074219 C 3.136719 -47.160156 3.136719 -48.246094 3.316406 -49.332031 C 7.175781 -49.332031 11.519531 -49.875 14.957031 -51.625 C 22.617188 -55.664062 20.988281 -63.503906 13.992188 -64.410156 C 4.039062 -65.613281 -2.351562 -55.0625 0 -45.53125 C 2.351562 -36.304688 11.457031 -33.53125 19.960938 -36.246094 C 27.621094 -38.597656 33.109375 -45.050781 37.332031 -51.804688 C 38.175781 -53.191406 35.941406 -54.335938 35.339844 -52.828125 Z M 13.328125 -59.402344 C 15.980469 -58.980469 14.535156 -57.351562 12.542969 -56.328125 C 10.253906 -55.179688 7.476562 -54.699219 4.945312 -54.519531 C 6.753906 -57.957031 9.589844 -59.945312 13.328125 -59.402344 Z M 13.328125 -59.402344 "/></g></g></g><g fill="rgb(94.898987%, 78.039551%, 26.669312%)" fill-opacity="1"><g transform="translate(182.27524, 144.895388)"><g><path d="M 41.007812 -52.707031 C 38.175781 -46.136719 33.894531 -38.296875 26.835938 -38.65625 C 19.296875 -39.078125 20.746094 -50.539062 19.71875 -56.75 C 18.875 -61.453125 15.921875 -61.03125 14.292969 -56.929688 C 12.605469 -58.015625 10.734375 -58.738281 8.683594 -58.738281 C -2.109375 -58.617188 -6.332031 -36.367188 2.53125 -35.640625 C 8.140625 -35.160156 11.335938 -43.664062 14.59375 -51.082031 C 16.886719 -51.019531 18.03125 -53.671875 16.464844 -55.300781 C 16.765625 -55.84375 16.886719 -56.144531 17.007812 -56.449219 C 17.007812 -56.386719 17.066406 -56.328125 17.066406 -56.265625 C 18.273438 -49.03125 18.453125 -37.8125 26.714844 -37.511719 C 34.496094 -37.210938 38.839844 -45.109375 42.9375 -51.683594 C 43.84375 -53.011719 41.613281 -54.15625 41.007812 -52.707031 Z M 3.015625 -37.089844 C -3.859375 -37.332031 1.328125 -55.785156 8.503906 -54.820312 C 10.011719 -54.578125 11.519531 -53.433594 12.726562 -51.925781 C 11.398438 -46.980469 8.382812 -36.90625 3.015625 -37.089844 Z M 3.015625 -37.089844 "/></g></g></g><g fill="rgb(94.898987%, 78.039551%, 26.669312%)" fill-opacity="1"><g transform="translate(223.222107, 144.895388)"><g><path d="M 55.0625 -53.433594 C 53.371094 -47.523438 50.777344 -41.3125 47.222656 -36.125 C 42.816406 -29.914062 36.789062 -26.292969 32.324219 -31.964844 C 25.148438 -41.070312 29.609375 -63.804688 19.839844 -65.613281 C 8.925781 -67.605469 6.816406 -43.601562 3.980469 -33.894531 C 3.496094 -38.65625 3.800781 -50.597656 2.953125 -54.878906 C 2.472656 -57.050781 -0.785156 -56.386719 -0.363281 -54.214844 C 0.664062 -49.390625 -1.449219 -41.007812 -1.023438 -34.011719 C -0.484375 -24.605469 5.730469 -24.242188 8.019531 -30.636719 C 11.398438 -40.164062 11.097656 -63.445312 19.296875 -63.382812 C 27.078125 -63.324219 24.726562 -39.921875 31.601562 -31.359375 C 36.425781 -25.269531 43 -28.644531 48.125 -35.460938 C 51.742188 -40.347656 54.878906 -46.917969 57.109375 -52.589844 C 57.773438 -54.277344 55.484375 -54.878906 55.0625 -53.433594 Z M 55.0625 -53.433594 "/></g></g></g><g fill="rgb(94.898987%, 78.039551%, 26.669312%)" fill-opacity="1"><g transform="translate(278.099316, 144.895388)"><g><path d="M 33.46875 -53.3125 C 31.421875 -51.503906 28.828125 -50.296875 26.171875 -50.175781 C 19.539062 -49.753906 13.871094 -55.484375 10.070312 -60.851562 C 9.949219 -61.753906 9.46875 -62.539062 8.683594 -62.902344 C 8.503906 -63.140625 7.898438 -64.226562 7.117188 -65.070312 C 5.066406 -67.242188 1.023438 -63.746094 4.222656 -60.972656 C 1.085938 -57.351562 -0.664062 -52.046875 -0.785156 -47.339844 C -1.328125 -31.359375 17.972656 -32.625 13.027344 -49.332031 C 12.421875 -51.261719 11.820312 -53.132812 11.15625 -55.0625 C 15.679688 -51.503906 20.445312 -48.847656 26.234375 -49.210938 C 29.371094 -49.390625 31.964844 -50.355469 34.617188 -51.441406 C 36.304688 -52.105469 34.738281 -54.519531 33.46875 -53.3125 Z M 2.171875 -47.101562 C 2.773438 -51.742188 4.945312 -55.421875 7.296875 -57.414062 C 9.167969 -54.636719 10.554688 -51.625 11.398438 -48.847656 C 15.4375 -35.28125 0.542969 -34.496094 2.171875 -47.101562 Z M 2.171875 -47.101562 "/></g></g></g><g fill="rgb(94.898987%, 78.039551%, 26.669312%)" fill-opacity="1"><g transform="translate(311.387476, 144.895388)"><g><path d="M 36.96875 -52.769531 C 35.160156 -48.609375 33.289062 -44.507812 31.058594 -40.585938 C 28.101562 -35.339844 23.582031 -28.40625 18.152344 -25.570312 C 11.941406 -22.433594 8.140625 -24.242188 10.554688 -35.339844 C 13.027344 -46.195312 14.234375 -48.847656 6.753906 -52.46875 C 5.910156 -52.890625 5.066406 -53.25 4.28125 -53.613281 C 5.488281 -55.242188 6.574219 -56.929688 7.238281 -58.980469 C 9.527344 -66.097656 2.714844 -69.714844 -2.351562 -63.804688 C -5.125 -60.546875 -4.765625 -55.300781 -1.507812 -52.226562 C 0.121094 -50.839844 2.472656 -49.332031 4.582031 -48.425781 C 8.863281 -46.679688 6.574219 -45.289062 6.152344 -35.941406 C 5.609375 -22.917969 11.941406 -20.445312 18.875 -24.304688 C 24.363281 -27.5 28.765625 -34.496094 32.023438 -40.042969 C 34.011719 -43.542969 38.476562 -52.046875 38.476562 -52.105469 C 38.957031 -53.132812 37.449219 -53.914062 36.96875 -52.769531 Z M -0.179688 -62.054688 C 2.714844 -66.15625 6.753906 -64.46875 5.066406 -59.703125 C 4.34375 -57.894531 2.953125 -56.265625 1.265625 -55.0625 C -1.207031 -56.6875 -1.628906 -60.125 -0.179688 -62.054688 Z M -0.179688 -62.054688 "/></g></g></g></svg>